:FULLY-SPECIFIED
:FORCE-ALL-JOINTS-BE-3DOF
:DEGREES
170
root 6.55119 16.0883 -25.6789 3.76017 29.8635 1.44282
lfemur -26.1686 31.9481 -17.3064
ltibia 41.87 -0 0
lfoot -7.87556 10.8648 0.0231463
ltoes 13.6031 -0 0
rfemur -21.0598 -3.40515 -5.10633
rtibia 61.1827 -0 0
rfoot 8.41253 -25.6504 -0.0591947
rtoes 42.4199 -0 0
lowerback 1.54278 -5.03172 -1.41406
upperback 0.0576178 -6.74702 -2.34665
thorax -0.920141 -3.36916 -1.45479
lowerneck -9.43259 -7.38925 -1.69794
upperneck 1.69857 -9.9009 5.29503
head 2.5644 -4.77238 1.47188
lclavicle -9.77385e-14 3.10723e-15 9.24625e-32
lhumerus -49.6042 -41.3888 115.479
lradius 52.291 -0 0
lwrist 15.3469 0 0
lhand 37.1323 28.463 0.000576448
lfingers 7.12502 -0 0
lthumb 59.978 42.2625 -0.000363576
rclavicle -9.77385e-14 3.10723e-15 9.24625e-32
rhumerus -48.524 -14.4034 -79.4717
rradius 89.3864 -0 0
rwrist -4.58429 0 0
rhand -42.8002 -52.8485 0.187485
rfingers 7.12502 -0 0
rthumb -15.6808 -82.1446 0.214151
171
root 6.5262 16.0784 -25.6715 3.82944 29.4421 1.51795
lfemur -25.4134 31.3369 -16.6471
ltibia 41.2168 -0 0
lfoot -8.09561 10.2267 0.0879037
ltoes 14.35 -0 0
rfemur -21.056 -3.5733 -5.19069
rtibia 60.8375 -0 0
rfoot 7.75945 -25.1113 -0.224898
rtoes 42.6359 -0 0
lowerback 1.44144 -4.98603 -1.40682
upperback 0.0491585 -6.68174 -2.42825
thorax -0.877431 -3.33855 -1.5497
lowerneck -9.49724 -7.28742 -1.61939
upperneck 1.7394 -9.77463 5.27434
head 2.58297 -4.7077 1.45876
lclavicle -9.49898e-14 2.89687e-15 3.50919e-31
lhumerus -49.6951 -41.3953 115.421
lradius 52.3287 -0 0
lwrist 15.4379 0 0
lhand 37.211 28.5087 0.0021879
lfingers 7.12502 -0 0
lthumb 60.0438 42.228 -0.00137992
rclavicle -9.49898e-14 2.89687e-15 3.50919e-31
rhumerus -48.7271 -13.2553 -79.074
rradius 90.0279 -0 0
rwrist -4.85672 0 0
rhand -41.527 -52.0825 0.713983
rfingers 7.12502 -0 0
rthumb -14.4951 -81.2167 0.815702
172
root 6.48664 16.0627 -25.66 3.93722 28.7748 1.63509
lfemur -24.2447 30.3545 -15.6312
ltibia 40.1828 -0 0
lfoot -8.44533 9.21638 0.185377
ltoes 15.5323 -0 0
rfemur -21.0495 -3.83944 -5.32427
rtibia 60.2911 -0 0
rfoot 6.72251 -24.2541 -0.474589
rtoes 42.9778 -0 0
lowerback 1.28108 -4.91369 -1.39551
upperback 0.035579 -6.57843 -2.5574
thorax -0.809931 -3.28996 -1.6999
lowerneck -9.59926 -7.12606 -1.49534
upperneck 1.80389 -9.57474 5.24179
head 2.61233 -4.60532 1.43803
lclavicle -9.0639e-14 2.56391e-15 7.39391e-31
lhumerus -49.839 -41.4059 115.329
lradius 52.3884 -0 0
lwrist 15.5819 0 0
lhand 37.3356 28.5812 0.00461019
lfingers 7.12502 -0 0
lthumb 60.148 42.1733 -0.00290762
rclavicle -9.0639e-14 2.56391e-15 7.39391e-31
rhumerus -49.03 -11.4352 -78.4564
rradius 91.0432 -0 0
rwrist -5.2879 0 0
rhand -39.4971 -50.8464 1.51204
rfingers 7.12502 -0 0
rthumb -12.5983 -79.7227 1.72801
173
root 6.43423 16.042 -25.6446 4.0766 27.8904 1.78696
lfemur -22.7449 29.0265 -14.3363
ltibia 38.8127 -0 0
lfoot -8.91132 7.87662 0.305011
ltoes 17.0987 -0 0
rfemur -21.04 -4.19201 -5.50137
rtibia 59.5669 -0 0
rfoot 5.34311 -23.1117 -0.781373
rtoes 43.4308 -0 0
lowerback 1.06864 -4.81779 -1.38084
upperback 0.0172304 -6.44159 -2.72852
thorax -0.720699 -3.2253 -1.8988
lowerneck -9.73382 -6.91194 -1.33149
upperneck 1.8891 -9.30985 5.19905
head 2.65116 -4.46965 1.41065
lclavicle -8.48746e-14 2.12277e-15 1.21514e-30
lhumerus -50.0296 -41.4201 115.207
lradius 52.4676 -0 0
lwrist 15.7727 0 0
lhand 37.5007 28.6772 0.00757697
lfingers 7.12502 -0 0
lthumb 60.2861 42.1009 -0.00477865
rclavicle -8.48746e-14 2.12277e-15 1.21514e-30
rhumerus -49.398 -9.01919 -77.6587
rradius 92.3886 -0 0
rwrist -5.85917 0 0
rhand -36.7806 -49.1656 2.50068
rfingers 7.12502 -0 0
rthumb -10.0479 -77.6968 2.85906
174
root 6.37068 16.0169 -25.626 4.24062 26.8175 1.96627
lfemur -20.9974 27.3781 -12.841
ltibia 37.1516 -0 0
lfoot -9.47985 6.251 0.435391
ltoes 18.998 -0 0
rfemur -21.027 -4.61948 -5.71629
rtibia 58.6889 -0 0
rfoot 3.6626 -21.7169 -1.11624
rtoes 43.98 -0 0
lowerback 0.811121 -4.70144 -1.36354
upperback -0.00556305 -6.27574 -2.936
thorax -0.612812 -3.14649 -2.13983
lowerneck -9.89607 -6.65181 -1.13359
upperneck 1.99207 -8.98858 5.1478
head 2.69816 -4.30512 1.37758
lclavicle -7.78851e-14 1.58787e-15 1.73247e-30
lhumerus -50.2608 -41.4378 115.06
lradius 52.5636 -0 0
lwrist 16.004 0 0
lhand 37.7009 28.7936 0.0108033
lfingers 7.12502 -0 0
lthumb 60.4536 42.0132 -0.00681334
rclavicle -7.78851e-14 1.58787e-15 1.73247e-30
rhumerus -49.7962 -6.08334 -76.7182
rradius 94.0199 -0 0
rwrist -6.55203 0 0
rhand -33.4464 -47.0656 3.59027
rfingers 7.12502 -0 0
rthumb -6.90024 -75.1726 4.10682
175
root 6.29771 15.988 -25.6047 4.4225 25.5851 2.16594
lfemur -19.0811 25.4379 -11.2199
ltibia 35.244 -0 0
lfoot -10.137 4.38276 0.565135
ltoes 21.179 -0 0
rfemur -21.0101 -5.11029 -5.96339
rtibia 57.6806 -0 0
rfoot 1.72321 -20.1038 -1.45001
rtoes 44.6108 -0 0
lowerback 0.515499 -4.56774 -1.34433
upperback -0.0324735 -6.0854 -3.17427
thorax -0.489341 -3.05543 -2.4164
lowerneck -10.0812 -6.35241 -0.90739
upperneck 2.10983 -8.61958 5.08973
head 2.752 -4.11615 1.33979
lclavicle -6.98589e-14 9.73635e-16 2.24604e-30
lhumerus -50.5262 -41.4586 114.89
lradius 52.6738 -0 0
lwrist 16.2697 0 0
lhand 37.9308 28.9273 0.0140065
lfingers 7.12502 -0 0
lthumb 60.6459 41.9123 -0.00883336
rclavicle -6.98589e-14 9.73635e-16 2.24604e-30
rhumerus -50.1919 -2.7047 -75.6679
rradius 95.8931 -0 0
rwrist -7.34753 0 0
rhand -29.566 -44.5772 4.68745
rfingers 7.12502 -0 0
rthumb -3.21525 -72.1891 5.36468
